# xmcd
#
# Track frame offsets:
# 150
# 7667
# 21806
# 39740
# 56718
# 74554
# 86464
# 100376
# 114770
# 128210
# 144467
# 161919
# 178062
# 198584
# 213734
# 233431
# 246244
# 261206
# 283405
# 307826
#
# Disc length: 4225 seconds
#
#
# Revision: 0
# Processed by: cddbd v1.5.1PL2 Copyright (c) Steve Scherf et al.
# Submitted via: FreeRIP 2.943 
#
DISCID=21107f14
DTITLE=Emílio e Eduardo - Ao vivo
DYEAR=2005
DGENRE=Sertanejo
TTITLE0=Abertura
TTITLE1=Rodopiou
TTITLE2=Maluco de paixão
TTITLE3=Hey saudade
TTITLE4=Bebedeira
TTITLE5=Fogo na botina
TTITLE6=Sapatiô
TTITLE7=Festa de peão
TTITLE8=Minha luz
TTITLE9=Cara de boi
TTITLE10=Vendaval de ilusões
TTITLE11=Galera do grito
TTITLE12=Você virou saudade
TTITLE13=Ó meu amor
TTITLE14=Peão de caminhonete
TTITLE15=Chora Carolina
TTITLE16=Da pá virada
TTITLE17=Sinônimos
TTITLE18=O amor
TTITLE19=Encerramento
EXTD=
EXTT0=
EXTT1=
EXTT2=
EXTT3=
EXTT4=
EXTT5=
EXTT6=
EXTT7=
EXTT8=
EXTT9=
EXTT10=
EXTT11=
EXTT12=
EXTT13=
EXTT14=
EXTT15=
EXTT16=
EXTT17=
EXTT18=
EXTT19=
PLAYORDER=
